# xmcd
#
# Track frame offsets:
#  150
#  10201
#  22019
#  45820
#  59391
#  71307
#  91633
#  105935
#  126469
#  137251
#  147560
#  157513
#  178395
#  192886
#  210936
#  223847
#  236285
#  248852
#  257602
#  274246
#  293632
#  311401
#
# Disc length: 4447 seconds
#
# Revision: 0
# Processed by: cddbd v1.4PL0 Copyright (c) Steve Scherf et al.
# Submitted via: AltoMP3_Maker 3.0
#
DISCID=29115d16
DTITLE=Bob Norris - Time Traveller
DYEAR=1900
DGENRE=
TTITLE0=When
TTITLE1=Brittany Boogie
TTITLE2=Sad Day
TTITLE3=Apache
TTITLE4=Cop This!
TTITLE5=Absent Friend
TTITLE6=Wail On
TTITLE7=Summertime
TTITLE8=Minky's Race
TTITLE9=Valley Forge
TTITLE10=Wonderful Land
TTITLE11=Even Steven
TTITLE12=Someday
TTITLE13=Willy Wombat
TTITLE14=Rise and Fall Of Flingel Bunt
TTITLE15=Great Beanie Massacre
TTITLE16=Stranger On The Shore
TTITLE17=Rock On Roll
TTITLE18=Easter Someday Blues
TTITLE19=Parisienne Walkways
TTITLE20=King Freddie
TTITLE21=Gas!
EXTD=
EXTT0=
EXTT1=
EXTT2=
EXTT3=
EXTT4=
EXTT5=
EXTT6=
EXTT7=
EXTT8=
EXTT9=
EXTT10=
EXTT11=
EXTT12=
EXTT13=
EXTT14=
EXTT15=
EXTT16=
EXTT17=
EXTT18=
EXTT19=
EXTT20=
EXTT21=
PLAYORDER=
